<svg width="843" height="486" viewBox="0 0 843 486" fill="none" xmlns="http://www.w3.org/2000/svg">
<path d="M0.9 224V0.799995H106.5C129.6 0.799995 147.3 6.2 158.7 16.1C171 26.9 177.6 41 177.6 58.7C177.6 80.9 165.6 95.9 141.6 103.4V104.6C170.4 111.5 186.3 131.6 186.3 158.9C186.3 180.2 178.5 196.4 164.4 207.5C151.2 218.3 132.9 224 109.2 224H0.9ZM51.6 90.5H99.3C116.7 90.5 128.4 82.1 128.4 65.6C128.4 49.4 117.3 40.4 99.9 40.4H51.6V90.5ZM51.6 183.8H103.8C114 183.8 122.1 180.8 127.5 175.7C132.6 170.9 135.6 163.7 135.6 155.3C135.6 135.8 121.5 126.2 102.9 126.2H51.6V183.8ZM242.459 277.4C240.959 277.4 211.859 277.1 210.959 276.8V239.9H213.359C213.959 240.2 227.459 240.2 228.659 240.2C243.359 240.2 250.559 234.8 251.459 224C251.459 218.6 248.759 206.3 243.059 191.9L193.559 64.4H243.059L263.459 125.6C270.659 147.2 276.659 181.1 276.659 181.1H277.259C277.259 181.1 284.459 146.9 291.359 125.6L310.859 64.4H357.659L300.659 227.9C287.759 264.8 273.059 277.4 242.459 277.4ZM0.9 480V256.8H51.9V342.9H136.2V256.8H187.2V480H136.2V385.5H51.9V480H0.9ZM370.221 480H325.521V457.2H324.621C312.921 475.8 298.521 484.5 276.621 484.5C240.321 484.5 220.521 461.1 220.521 426V320.4H267.621V417C267.621 434.7 276.321 444.9 293.121 444.9C312.021 444.9 323.721 430.5 323.721 410.7V320.4H370.221V480ZM392.011 350.4V320.4H416.011V269.4H462.211V320.4H493.411V350.4H462.211V429.6C462.211 441.6 468.811 444.9 479.911 444.9C482.911 444.9 487.711 444.6 490.711 444.3H493.111V479.4C488.011 480.3 478.411 481.8 465.811 481.8C436.111 481.8 416.011 472.2 416.011 439.8V350.4H392.011ZM594.413 485.1C543.413 485.1 510.413 448.2 510.413 400.5C510.413 352.5 543.113 315.9 593.213 315.9C635.813 315.9 662.213 340.2 667.913 375H622.313C619.013 360.3 609.413 351 593.813 351C570.113 351 558.113 370.5 558.113 400.5C558.113 429.6 570.113 449.4 593.813 449.4C611.213 449.4 621.713 438.9 623.813 420.6H669.113C667.612 456.9 638.813 485.1 594.413 485.1ZM738.157 318.3C738.157 319.8 738.157 332.7 737.857 343.2H738.757C748.357 326.1 764.557 315.9 786.757 315.9C821.857 315.9 842.257 339.3 842.257 375V480H795.457V384C795.457 366.6 786.157 354.9 768.757 354.9C750.457 354.9 738.157 369.6 738.157 390V480H691.057V256.8H738.157V318.3Z" fill="white"/>
</svg>
